<svg xmlns="http://www.w3.org/2000/svg" width="210" height="127" viewBox="0 0 210 127">
  <g fill="none" fill-rule="evenodd">
    <path stroke="#003082" d="M101.588537,41.0231505 L129.520724,41.0231505 L120.667634,32.1572336 C116.411281,27.8957498 110.753042,25.5479448 104.733727,25.5479448 L83.9227066,25.5479448 C85.0855993,34.2719159 92.5637031,41.0231505 101.588537,41.0231505 Z M143.525098,48.3380242 C146.221271,51.0370675 147.705925,54.6261217 147.705925,58.4420819 C147.705925,62.2570061 146.222305,65.8450242 143.525098,68.5440675 C140.829959,71.2441469 137.247132,72.730952 133.436693,72.730952 L34.282499,72.730952 L34.282499,67.9845729 L133.437727,67.9845729 C135.981814,67.9845729 138.374848,66.9919881 140.175056,65.1881361 C141.975264,63.3853202 142.967447,60.9898545 142.967447,58.4420819 C142.967447,55.8943094 141.976298,53.4967715 140.175056,51.6939556 L134.259201,45.7695296 L101.588537,45.7695296 C89.9482291,45.7695296 80.3409142,36.8963599 79.1521564,25.5479448 L10.7266789,25.5479448 L10.7266789,20.8026018 L79.0269696,20.8026018 L104.733727,20.8026018 C112.019395,20.8026018 118.867426,23.6446271 124.01871,28.8023383 L143.525098,48.3380242 Z"/>
    <path stroke="#003082" d="M56.8432388 41.0230469L68.9315294 41.0230469 68.9315294 35.6591516 56.8432388 35.6591516 56.8432388 41.0230469zM52.1057958 45.769426L73.6710415 45.769426 73.6710415 30.9138087 52.1057958 30.9138087 52.1057958 45.769426zM29.9218581 41.0230469L42.0101488 41.0230469 42.0101488 35.6591516 29.9218581 35.6591516 29.9218581 41.0230469zM25.1833806 45.769426L46.7486263 45.769426 46.7486263 30.9138087 25.1833806 30.9138087 25.1833806 45.769426z"/>
    <polygon stroke="#003082" points=".631 30.914 .631 35.659 15.088 35.659 15.088 41.023 .631 41.023 .631 45.77 19.827 45.77 19.827 30.914"/>
    <polygon stroke="#003082" points="10.727 72.73 27.553 72.73 27.553 67.984 10.727 67.984"/>
    <polygon stroke="#003082" points=".631 72.73 5.679 72.73 5.679 67.984 .631 67.984"/>
    <polygon stroke="#003082" points="20.821 62.622 51.108 62.622 51.108 57.875 20.821 57.875"/>
    <polygon stroke="#003082" points="10.727 62.622 15.775 62.622 15.775 57.875 10.727 57.875"/>
    <polygon stroke="#003082" points="57.842 15.44 88.129 15.44 88.129 10.694 57.842 10.694"/>
    <polygon stroke="#003082" points="47.744 15.44 52.792 15.44 52.792 10.694 47.744 10.694"/>
    <polygon stroke="#003082" points="41.015 5.327 61.207 5.327 61.207 .582 41.015 .582"/>
    <polygon stroke="#003082" points="30.918 5.327 35.966 5.327 35.966 .582 30.918 .582"/>
    <polygon stroke="#003082" points="108.183 55.879 112.922 55.879 112.922 51.133 108.183 51.133"/>
    <polygon stroke="#003082" points="98.705 55.879 103.445 55.879 103.445 51.133 98.705 51.133"/>
    <polygon stroke="#003082" points="127.138 55.879 131.877 55.879 131.877 51.133 127.138 51.133"/>
    <polygon stroke="#003082" points="117.661 55.879 122.4 55.879 122.4 51.133 117.661 51.133"/>
    <polygon stroke="#003082" points="1 83 155 83 155 78 1 78"/>
    <polygon stroke="#003082" points="1 27 6 27 6 22 1 22"/>
    <path fill="#FFFFFF" d="M201.927996,78.8074776 C201.927996,102.957958 182.378155,122.534052 158.264684,122.534052 C134.149145,122.534052 114.601373,102.957958 114.601373,78.8074776 C114.601373,54.6580336 134.149145,35.0809036 158.264684,35.0809036 C182.378155,35.0809036 201.927996,54.6580336 201.927996,78.8074776"/>
    <path fill="#003082" d="M162.14958,124.238023 C137.841604,124.238023 118.064151,104.431915 118.064151,80.0876841 C118.064151,55.7444892 137.841604,35.9373448 162.14958,35.9373448 C186.45859,35.9373448 206.236043,55.7444892 206.236043,80.0876841 C206.236043,104.431915 186.45859,124.238023 162.14958,124.238023 M162.14958,32.7834531 C136.104507,32.7834531 114.914822,54.0048755 114.914822,80.0876841 C114.914822,106.171529 136.104507,127.391915 162.14958,127.391915 C188.195687,127.391915 209.385372,106.171529 209.385372,80.0876841 C209.385372,54.0048755 188.195687,32.7834531 162.14958,32.7834531"/>
    <path fill="#003082" d="M164.14958,42.2444029 C163.280514,42.2444029 162.57595,42.9499877 162.57595,43.8213487 L162.57595,80.0869588 L138.957019,80.0869588 C138.088988,80.0869588 137.383389,80.7925437 137.383389,81.6649408 C137.383389,82.5363018 138.088988,83.2408505 138.957019,83.2408505 L164.14958,83.2408505 C165.01968,83.2408505 165.724244,82.5363018 165.724244,81.6649408 L165.724244,43.8213487 C165.724244,42.9499877 165.01968,42.2444029 164.14958,42.2444029"/>
  </g>
</svg>
