<svg xmlns="http://www.w3.org/2000/svg" width="27" height="26" viewBox="0 0 27 26">
  <g fill="#003082">
    <path d="M13.057971,0 C5.8578058,0 0,5.8318 0,13 C0,20.1682 5.8578058,26 13.057971,26 C20.2581362,26 26.115942,20.1682 26.115942,13 C26.115942,5.8318 20.2581362,0 13.057971,0 Z M13.057971,25.1333333 C6.33790386,25.1333333 0.870531401,19.6902333 0.870531401,13 C0.870531401,6.30976667 6.33790386,0.866666667 13.057971,0.866666667 C19.7780382,0.866666667 25.2454106,6.30976667 25.2454106,13 C25.2454106,19.6902333 19.7780382,25.1333333 13.057971,25.1333333 Z"/>
    <path d="M13.3993559,3.05882353 C13.1638003,3.05882353 12.9726248,3.26917647 12.9726248,3.52941176 L12.9726248,14.3529412 L6.57165862,14.3529412 C6.33610306,14.3529412 6.14492754,14.5632941 6.14492754,14.8235294 C6.14492754,15.0837647 6.33610306,15.2941176 6.57165862,15.2941176 L13.3993559,15.2941176 C13.6349114,15.2941176 13.826087,15.0837647 13.826087,14.8235294 L13.826087,3.52941176 C13.826087,3.26917647 13.6349114,3.05882353 13.3993559,3.05882353 Z"/>
  </g>
</svg>
