<svg xmlns="http://www.w3.org/2000/svg" width="48" height="19" viewBox="0 0 48 19">
  <path fill="#FFFFFF" d="M47.2,7.91666667 L45.456,7.91666667 C44.6952,3.43108333 40.776,0 36.0576,0 C31.4,0 27.5008,3.260875 26.5976,7.583375 C25.8208,6.93895833 24.9344,6.59695833 24,6.59695833 C23.0664,6.59695833 22.1808,6.93895833 21.404,7.58258333 C20.5112,3.26008333 16.66,0 12.0576,0 C7.0048,0 2.852,3.840375 2.4408,8.70833333 L0.8,8.70833333 C0.3576,8.70833333 0,9.063 0,9.5 C0,9.937 0.3576,10.2916667 0.8,10.2916667 L2.4408,10.2916667 C2.852,15.159625 7.0048,19 12.0576,19 C17.2312,19 21.4464,14.8777917 21.5864,9.76045833 C22.2688,8.74316667 23.1184,8.18029167 24,8.18029167 C24.8816,8.18029167 25.7312,8.74395833 26.4136,9.76045833 C26.556,14.8777917 30.8224,19 36.0576,19 C41.3192,19 45.6,14.7384583 45.6,9.5 L47.2,9.5 C47.6424,9.5 48,9.14533333 48,8.70833333 C48,8.27133333 47.6424,7.91666667 47.2,7.91666667 Z M12.0576,17.4166667 C7.6152,17.4166667 4,13.86525 4,9.5 C4,5.13475 7.6152,1.58333333 12.0576,1.58333333 C16.512,1.58333333 20,5.061125 20,9.5 C20,13.938875 16.512,17.4166667 12.0576,17.4166667 Z M36.0576,17.4166667 C31.6152,17.4166667 28,13.86525 28,9.5 C28,5.13475 31.6152,1.58333333 36.0576,1.58333333 C40.512,1.58333333 44,5.061125 44,9.5 C44,13.938875 40.512,17.4166667 36.0576,17.4166667 Z"/>
</svg>
